<?xml version="1.0"?>
<svg xmlns="http://www.w3.org/2000/svg" xmlns:xlink="http://www.w3.org/1999/xlink" xmlns:svgjs="http://svgjs.com/svgjs" version="1.1" width="512" height="512" x="0" y="0" viewBox="0 0 24 24" style="enable-background:new 0 0 512 512" xml:space="preserve"><g><g xmlns="http://www.w3.org/2000/svg" id="_01_align_center" data-name="01 align center"><path d="M21,1H3A3,3,0,0,0,0,4V23H24V4A3,3,0,0,0,21,1ZM3,3H21a1,1,0,0,1,1,1v.667l-7.878,7.879a3.007,3.007,0,0,1-4.244,0L2,4.667V4A1,1,0,0,1,3,3ZM2,21V7.5L8.464,13.96a5.007,5.007,0,0,0,7.072,0L22,7.5V21Z" fill="#bbbbbb" data-original="#000000"/></g></g></svg>
